<svg width="1512" height="982" viewBox="0 0 1512 982" fill="none" xmlns="http://www.w3.org/2000/svg">
<g clip-path="url(#clip0_1241_10879)">
<rect width="1512" height="982" fill="url(#paint0_linear_1241_10879)"/>
<g clip-path="url(#clip1_1241_10879)">
<path d="M227.537 137.63C226.832 136.414 225.82 135.405 224.603 134.702C223.386 134 222.006 133.628 220.6 133.625C215.453 133.602 196.145 138.775 196.145 138.775C196.145 138.775 176.847 143.988 172.401 146.582C171.185 147.288 170.176 148.3 169.473 149.517C168.771 150.734 168.399 152.114 168.396 153.519C169.229 162.432 172.146 175.571 176.392 183.204C177.098 184.419 178.11 185.428 179.327 186.131C180.544 186.834 181.924 187.206 183.329 187.209C188.477 187.232 207.785 182.058 207.785 182.058C207.785 182.058 227.093 176.885 231.539 174.291C232.755 173.586 233.764 172.574 234.467 171.357C235.169 170.139 235.541 168.759 235.544 167.354C234.788 158.408 231.781 145.301 227.537 137.63Z" fill="#FF0000"/>
<path d="M198.286 171.346L211.817 157.777L193.314 152.791L198.286 171.346Z" fill="white"/>
</g>
<g clip-path="url(#clip2_1241_10879)">
<path d="M1142.27 949.145C1141.56 947.93 1140.55 946.921 1139.34 946.218C1138.12 945.515 1136.74 945.144 1135.33 945.14C1130.19 945.117 1110.88 950.291 1110.88 950.291C1110.88 950.291 1091.58 955.504 1087.13 958.098C1085.92 958.803 1084.91 959.815 1084.21 961.032C1083.5 962.25 1083.13 963.63 1083.13 965.035C1083.96 973.948 1086.88 987.087 1091.13 994.719C1091.83 995.935 1092.84 996.944 1094.06 997.647C1095.28 998.35 1096.66 998.721 1098.06 998.725C1103.21 998.748 1122.52 993.574 1122.52 993.574C1122.52 993.574 1141.83 988.401 1146.27 985.807C1147.49 985.101 1148.5 984.089 1149.2 982.872C1149.9 981.655 1150.27 980.275 1150.28 978.87C1149.52 969.924 1146.51 956.817 1142.27 949.145Z" fill="#FF0000"/>
<path d="M1113.02 982.861L1126.55 969.292L1108.05 964.307L1113.02 982.861Z" fill="white"/>
</g>
<g clip-path="url(#clip3_1241_10879)">
<path d="M1512.27 229.145C1511.56 227.93 1510.55 226.921 1509.34 226.218C1508.12 225.515 1506.74 225.144 1505.33 225.14C1500.19 225.117 1480.88 230.291 1480.88 230.291C1480.88 230.291 1461.58 235.504 1457.13 238.098C1455.92 238.803 1454.91 239.815 1454.21 241.032C1453.5 242.25 1453.13 243.63 1453.13 245.035C1453.96 253.948 1456.88 267.087 1461.13 274.719C1461.83 275.935 1462.84 276.944 1464.06 277.647C1465.28 278.35 1466.66 278.721 1468.06 278.725C1473.21 278.748 1492.52 273.574 1492.52 273.574C1492.52 273.574 1511.83 268.401 1516.27 265.807C1517.49 265.101 1518.5 264.089 1519.2 262.872C1519.9 261.655 1520.27 260.275 1520.28 258.87C1519.52 249.924 1516.51 236.817 1512.27 229.145Z" fill="#FF0000"/>
<path d="M1483.02 262.861L1496.55 249.292L1478.05 244.307L1483.02 262.861Z" fill="white"/>
</g>
<g clip-path="url(#clip4_1241_10879)">
<path d="M1293.97 625.816C1293.5 624.997 1292.82 624.317 1292 623.843C1291.17 623.37 1290.24 623.119 1289.3 623.117C1285.83 623.101 1272.81 626.588 1272.81 626.588C1272.81 626.588 1259.81 630.102 1256.81 631.851C1255.99 632.326 1255.31 633.008 1254.84 633.829C1254.36 634.649 1254.11 635.58 1254.11 636.527C1254.67 642.534 1256.64 651.391 1259.5 656.536C1259.97 657.355 1260.66 658.035 1261.48 658.509C1262.3 658.982 1263.23 659.233 1264.18 659.235C1267.64 659.251 1280.66 655.764 1280.66 655.764C1280.66 655.764 1293.67 652.276 1296.67 650.528C1297.49 650.052 1298.17 649.37 1298.64 648.55C1299.12 647.73 1299.37 646.799 1299.37 645.852C1298.86 639.822 1296.83 630.987 1293.97 625.816Z" fill="#FF0000"/>
<path d="M1274.26 648.543L1283.38 639.397L1270.91 636.036L1274.26 648.543Z" fill="white"/>
</g>
<g clip-path="url(#clip5_1241_10879)">
<path d="M1215.27 -10.8545C1214.56 -12.0699 1213.55 -13.0792 1212.34 -13.782C1211.12 -14.4847 1209.74 -14.8563 1208.33 -14.8598C1203.19 -14.8828 1183.88 -9.70936 1183.88 -9.70936C1183.88 -9.70936 1164.58 -4.49609 1160.13 -1.90232C1158.92 -1.19654 1157.91 -0.184675 1157.21 1.0325C1156.5 2.24967 1156.13 3.62969 1156.13 5.03512C1156.96 13.9477 1159.88 27.0869 1164.13 34.7194C1164.83 35.9348 1165.84 36.9441 1167.06 37.6468C1168.28 38.3495 1169.66 38.7212 1171.06 38.7247C1176.21 38.7476 1195.52 33.5741 1195.52 33.5741C1195.52 33.5741 1214.83 28.4006 1219.27 25.8069C1220.49 25.1012 1221.5 24.0894 1222.2 22.8722C1222.9 21.6551 1223.27 20.2751 1223.28 18.8697C1222.52 9.92368 1219.51 -3.18304 1215.27 -10.8545Z" fill="#FF0000"/>
<path d="M1186.02 22.8614L1199.55 9.29238L1181.05 4.30688L1186.02 22.8614Z" fill="white"/>
</g>
<g clip-path="url(#clip6_1241_10879)">
<path d="M301.271 745.145C300.565 743.93 299.553 742.921 298.336 742.218C297.119 741.515 295.739 741.144 294.334 741.14C289.186 741.117 269.878 746.291 269.878 746.291C269.878 746.291 250.581 751.504 246.134 754.098C244.918 754.803 243.909 755.815 243.207 757.032C242.504 758.25 242.132 759.63 242.129 761.035C242.962 769.948 245.879 783.087 250.125 790.719C250.831 791.935 251.843 792.944 253.06 793.647C254.277 794.35 255.657 794.721 257.063 794.725C262.21 794.748 281.518 789.574 281.518 789.574C281.518 789.574 300.826 784.401 305.272 781.807C306.488 781.101 307.497 780.089 308.2 778.872C308.902 777.655 309.274 776.275 309.278 774.87C308.521 765.924 305.514 752.817 301.271 745.145Z" fill="#FF0000"/>
<path d="M272.019 778.861L285.55 765.292L267.047 760.307L272.019 778.861Z" fill="white"/>
</g>
<g clip-path="url(#clip7_1241_10879)">
<path d="M25.2705 481.145C24.5648 479.93 23.5531 478.921 22.336 478.218C21.1189 477.515 19.7389 477.144 18.3335 477.14C13.1857 477.117 -6.12172 482.291 -6.12172 482.291C-6.12172 482.291 -25.4195 487.504 -29.8662 490.098C-31.0815 490.803 -32.0908 491.815 -32.7935 493.032C-33.4961 494.25 -33.8677 495.63 -33.8711 497.035C-33.0382 505.948 -30.1209 519.087 -25.8745 526.719C-25.1688 527.935 -24.157 528.944 -22.9399 529.647C-21.7228 530.35 -20.3429 530.721 -18.9375 530.725C-13.7897 530.748 5.51824 525.574 5.51824 525.574C5.51824 525.574 24.8259 520.401 29.2723 517.807C30.4877 517.101 31.4971 516.089 32.1998 514.872C32.9025 513.655 33.2741 512.275 33.2776 510.87C32.5209 501.924 29.5144 488.817 25.2705 481.145Z" fill="#FF0000"/>
<path d="M-3.98123 514.861L9.54993 501.292L-8.95288 496.307L-3.98123 514.861Z" fill="white"/>
</g>
</g>
<defs>
<linearGradient id="paint0_linear_1241_10879" x1="756" y1="0" x2="756" y2="982" gradientUnits="userSpaceOnUse">
<stop/>
<stop offset="1"/>
</linearGradient>
<clipPath id="clip0_1241_10879">
<rect width="1512" height="982" fill="white"/>
</clipPath>
<clipPath id="clip1_1241_10879">
<rect width="64" height="45" fill="white" transform="translate(165.267 147.049) rotate(-15)"/>
</clipPath>
<clipPath id="clip2_1241_10879">
<rect width="64" height="45" fill="white" transform="translate(1080 958.564) rotate(-15)"/>
</clipPath>
<clipPath id="clip3_1241_10879">
<rect width="64" height="45" fill="white" transform="translate(1450 238.564) rotate(-15)"/>
</clipPath>
<clipPath id="clip4_1241_10879">
<rect width="43.1392" height="30.3322" fill="white" transform="translate(1252 632.165) rotate(-15)"/>
</clipPath>
<clipPath id="clip5_1241_10879">
<rect width="64" height="45" fill="white" transform="translate(1153 -1.43555) rotate(-15)"/>
</clipPath>
<clipPath id="clip6_1241_10879">
<rect width="64" height="45" fill="white" transform="translate(239 754.564) rotate(-15)"/>
</clipPath>
<clipPath id="clip7_1241_10879">
<rect width="64" height="45" fill="white" transform="translate(-37 490.564) rotate(-15)"/>
</clipPath>
</defs>
</svg>
